:SAMPLES-PER-SECOND 30
:FULLY-SPECIFIED
:DEGREES
261
root  -3.88838 39.9475 28.4221 -174.776 6.98717 176.702
RightUpLeg  -15.4879 -11.8335 -14.8614
RightLeg  19.9715 5.05873 1.842
RightFoot  4.73745 -4.20222 29.382
RightToes  -1.74624e-010 0 -3.6325e-017
Spine  11.0887 -2.24126 -6.31238
Spine1  16.3909 -4.18046 2.85862
HEad  -22.7319 11.3336 -3.24782
LeftShoulder1  0.930987 -0.957627 -13.9177
LeftArm  11.9428 7.53268 -57.9816
LeftForeArm  116.448 -77.7596 -122.539
LeftHand  -1.1937 -1.84793 19.2189
RightShoulder  1.10213 1.27282 16.4542
RightArm  2.07419 -2.76392 50.9098
RightForeArm  91.8566 73.766 133.87
RightHand  -0.317962 -1.34399 -9.01513
LeftUpLeg  -11.002 6.30253 5.42264
LeftLeg  22.1993 0.755787 0.699054
LeftFoot  -1.63666 1.3965 -16.1276
LeftToes  -5.82109e-011 1.10366e-010 -8.03124e-011
262
root  -4.01427 40.2119 28.5237 -173.784 3.41513 176.54
RightUpLeg  -13.9621 -11.5511 -13.7111
RightLeg  18.6273 0.689515 0.0509069
RightFoot  4.4775 -3.47696 24.8451
RightToes  -1.74624e-010 0 -3.6325e-017
Spine  11.2779 -2.52454 -4.67435
Spine1  14.6425 -4.26865 3.11749
HEad  -22.3092 8.43901 -1.72634
LeftShoulder1  0.948639 -1.15307 -13.3747
LeftArm  11.0665 8.38937 -56.9989
LeftForeArm  119.259 -76.9895 -127.078
LeftHand  -1.08649 -1.78253 17.6885
RightShoulder  1.0048 0.988441 15.6851
RightArm  0.432546 -1.74561 49.9434
RightForeArm  89.1787 73.6754 133.786
RightHand  -0.309283 -1.78804 -9.78447
LeftUpLeg  -12.9143 7.0255 5.97568
LeftLeg  21.5905 -6.77781 -2.64936
LeftFoot  1.60702 2.23706 -19.6239
LeftToes  -5.82109e-011 1.10366e-010 -8.03124e-011
263
root  -4.14511 40.0887 28.5989 -173.536 -0.0355835 176.204
RightUpLeg  -12.6119 -10.7746 -13.6043
RightLeg  18.5794 -5.00287 -2.15156
RightFoot  2.57017 -2.49697 20.4053
RightToes  -1.74624e-010 0 -3.6325e-017
Spine  11.5254 -2.44391 -2.98878
Spine1  13.233 -4.05232 3.63776
HEad  -21.7507 4.97862 -0.154885
LeftShoulder1  0.954102 -1.34243 -12.6191
LeftArm  10.3607 8.91845 -56.0192
LeftForeArm  122.469 -76.0378 -131.723
LeftHand  -1.00889 -1.61699 16.8374
RightShoulder  0.920404 0.786511 14.6812
RightArm  -2.02219 -1.0741 48.3634
RightForeArm  88.3818 73.4641 134.366
RightHand  -0.294819 -2.08992 -10.1381
LeftUpLeg  -14.9307 5.02681 7.01685
LeftLeg  23.4269 -13.1553 -5.85902
LeftFoot  1.83754 2.80116 -24.1237
LeftToes  -5.82109e-011 1.10366e-010 -8.03124e-011
264
root  -4.28203 39.7293 28.6831 -174.358 -2.33638 175.666
RightUpLeg  -11.3861 -9.94323 -14.3316
RightLeg  19.8954 -8.24159 -3.67893
RightFoot  -0.835205 -1.79169 19.327
RightToes  -1.74624e-010 0 -3.6325e-017
Spine  11.8301 -2.01385 -1.70923
Spine1  13.1725 -3.25486 3.21972
HEad  -21.5638 1.64102 0.867537
LeftShoulder1  0.94436 -1.3785 -12.2391
LeftArm  9.54881 8.90376 -54.6299
LeftForeArm  127.049 -74.9633 -136.314
LeftHand  -1.05961 -1.7886 17.2477
RightShoulder  0.844477 0.618447 13.6138
RightArm  -4.56098 0.537046 46.4857
RightForeArm  85.8763 73.4404 134.125
RightHand  -0.303681 -2.27403 -11.0427
LeftUpLeg  -15.8261 2.07918 8.39052
LeftLeg  25.9518 -12.6312 -6.25737
LeftFoot  -0.802669 2.25105 -23.8399
LeftToes  -5.82109e-011 1.10366e-010 -8.03124e-011
265
root  -4.47857 39.406 28.8016 -175.746 -3.19745 175.649
RightUpLeg  -10.0526 -8.72809 -14.799
RightLeg  20.8856 -9.61532 -4.39758
RightFoot  -3.665 -1.3876 20.1081
RightToes  -1.74624e-010 0 -3.6325e-017
Spine  12.1671 -1.51992 -0.304613
Spine1  14.4374 -2.12847 1.87956
HEad  -22.0303 -0.735307 1.27007
LeftShoulder1  0.933126 -1.25148 -12.5519
LeftArm  7.65373 9.25738 -53.2512
LeftForeArm  132.085 -74.2328 -139.37
LeftHand  -1.19332 -2.38296 17.9454
RightShoulder  0.792523 0.533693 12.6676
RightArm  -6.63871 3.90735 44.8957
RightForeArm  77.4615 74.1765 130.428
RightHand  -0.361512 -2.32072 -13.3692
LeftUpLeg  -15.2289 0.541231 10.2556
LeftLeg  26.6139 -5.51082 -2.69465
LeftFoot  -3.19931 1.31163 -18.1361
LeftToes  -5.82109e-011 1.10366e-010 -8.03124e-011
